<svg width="19" height="19" viewBox="0 0 19 19" fill="none" xmlns="http://www.w3.org/2000/svg">
<path d="M13.1575 2.36714C13.0656 2.27499 12.9564 2.20187 12.8362 2.15198C12.7159 2.1021 12.587 2.07642 12.4569 2.07642C12.3267 2.07642 12.1978 2.1021 12.0776 2.15198C11.9574 2.20187 11.8482 2.27499 11.7563 2.36714L5.1775 8.94589C5.10411 9.01913 5.04589 9.10613 5.00616 9.2019C4.96643 9.29767 4.94598 9.40033 4.94598 9.50402C4.94598 9.6077 4.96643 9.71037 5.00616 9.80614C5.04589 9.90191 5.10411 9.9889 5.1775 10.0621L11.7563 16.6409C12.1442 17.0288 12.7696 17.0288 13.1575 16.6409C13.5454 16.253 13.5454 15.6276 13.1575 15.2396L7.42584 9.50006L13.1654 3.76048C13.5454 3.38048 13.5454 2.74714 13.1575 2.36714Z" fill="#1E232C" stroke="#1E232C" stroke-width="0.2"/>
</svg>
