<svg width="21" height="20" viewBox="0 0 21 20" fill="none" xmlns="http://www.w3.org/2000/svg">
<g clip-path="url(#clip0_3_853)">
<path fill-rule="evenodd" clip-rule="evenodd" d="M6.37482 1.66675C4.93786 1.66675 3.55977 2.23757 2.54369 3.25365C1.52761 4.26973 0.956787 5.64783 0.956787 7.08478C0.956787 8.52173 1.52761 9.89982 2.54369 10.9159L9.91075 18.283C9.95143 18.3236 9.99527 18.3592 10.0415 18.3897C10.365 18.6033 10.8045 18.5677 11.0893 18.283L18.4564 10.9159C19.4725 9.89982 20.0433 8.52173 20.0433 7.08478C20.0433 5.64783 19.4725 4.26973 18.4564 3.25365C17.4403 2.23757 16.0622 1.66675 14.6253 1.66675C13.1883 1.66675 11.8102 2.23757 10.7941 3.25365L10.5 3.54775L10.2059 3.25365C9.18986 2.23757 7.81177 1.66675 6.37482 1.66675ZM11.0893 5.31561C10.8045 5.60038 10.365 5.63597 10.0415 5.4224C9.99527 5.39188 9.95143 5.35629 9.91075 5.31561L9.02737 4.43223C8.32387 3.72873 7.36972 3.3335 6.37482 3.3335C5.37992 3.3335 4.42576 3.72873 3.72226 4.43223C3.01876 5.13573 2.62354 6.08988 2.62354 7.08478C2.62354 8.07968 3.01876 9.03383 3.72226 9.73733L10.5 16.5151L17.2778 9.73733C17.9813 9.03383 18.3765 8.07968 18.3765 7.08478C18.3765 6.08988 17.9813 5.13573 17.2778 4.43223C16.5743 3.72873 15.6202 3.3335 14.6253 3.3335C13.6304 3.3335 12.6762 3.72873 11.9727 4.43223L11.0893 5.31561Z" fill="#CBCBD4"/>
</g>
<defs>
<clipPath id="clip0_3_853">
<rect width="20" height="20" fill="white" transform="translate(0.5)"/>
</clipPath>
</defs>
</svg>
