<svg width="16" height="16" viewBox="0 0 16 16" fill="none" xmlns="http://www.w3.org/2000/svg">
<path d="M1.63494 2.60278C2.4478 1.78991 3.55028 1.33325 4.69984 1.33325C5.8494 1.33325 6.95188 1.78991 7.76474 2.60278L8.00002 2.83805L8.2353 2.60278C9.04816 1.78991 10.1506 1.33325 11.3002 1.33325C12.4498 1.33325 13.5522 1.78991 14.3651 2.60278C15.178 3.41564 15.6346 4.51811 15.6346 5.66767C15.6346 6.81723 15.178 7.91971 14.3651 8.73257L8.47144 14.6262C8.24363 14.854 7.89195 14.8825 7.63317 14.7117C7.5962 14.6872 7.56113 14.6588 7.52858 14.6262L1.63494 8.73257C0.822079 7.91971 0.365417 6.81723 0.365417 5.66767C0.365417 4.51811 0.822079 3.41564 1.63494 2.60278Z" fill="#EB4335"/>
</svg>
